<svg xmlns="http://www.w3.org/2000/svg" viewBox="0 0 120 120" role="img" aria-label="Comic Katze">
  <defs>
    <linearGradient id="bg" x1="0" y1="0" x2="1" y2="1">
      <stop offset="0" stop-color="#ffe7f2" />
      <stop offset="1" stop-color="#ffd7a8" />
    </linearGradient>
  </defs>
  <circle cx="60" cy="60" r="56" fill="url(#bg)" stroke="#2c2c2c" stroke-width="4" />
  <path d="M28 42 L42 18 L54 42 Z" fill="#f8b86a" stroke="#2c2c2c" stroke-width="4" stroke-linejoin="round" />
  <path d="M92 42 L78 18 L66 42 Z" fill="#f8b86a" stroke="#2c2c2c" stroke-width="4" stroke-linejoin="round" />
  <circle cx="60" cy="64" r="34" fill="#ffc779" stroke="#2c2c2c" stroke-width="4" />
  <circle cx="48" cy="62" r="7" fill="#ffffff" stroke="#2c2c2c" stroke-width="3" />
  <circle cx="72" cy="62" r="7" fill="#ffffff" stroke="#2c2c2c" stroke-width="3" />
  <circle cx="48" cy="63" r="3" fill="#2c2c2c" />
  <circle cx="72" cy="63" r="3" fill="#2c2c2c" />
  <path d="M60 68 C56 72 55 76 60 78 C65 76 64 72 60 68 Z" fill="#ff7fa6" stroke="#2c2c2c" stroke-width="2" />
  <path d="M50 84 Q60 92 70 84" fill="none" stroke="#2c2c2c" stroke-width="4" stroke-linecap="round" />
  <path d="M38 73 L20 70 M38 78 L20 80" stroke="#2c2c2c" stroke-width="3" stroke-linecap="round" />
  <path d="M82 73 L100 70 M82 78 L100 80" stroke="#2c2c2c" stroke-width="3" stroke-linecap="round" />
</svg>
