<svg xmlns="http://www.w3.org/2000/svg" viewBox="0 0 120 120" role="img" aria-label="Comic Rakete">
  <defs>
    <linearGradient id="bg" x1="0" y1="0" x2="1" y2="1">
      <stop offset="0" stop-color="#e6fbf6" />
      <stop offset="1" stop-color="#e7f0ff" />
    </linearGradient>
  </defs>
  <circle cx="60" cy="60" r="56" fill="url(#bg)" stroke="#2c2c2c" stroke-width="4" />
  <g transform="translate(60 60) rotate(-20) translate(-60 -60)">
    <path d="M60 20 C73 30 80 45 80 62 C80 78 70 90 60 98 C50 90 40 78 40 62 C40 45 47 30 60 20 Z" fill="#ffffff" stroke="#2c2c2c" stroke-width="4" />
    <circle cx="60" cy="55" r="10" fill="#8fd8ff" stroke="#2c2c2c" stroke-width="3" />
    <path d="M40 66 L28 78 L41 82 Z" fill="#ff8a3d" stroke="#2c2c2c" stroke-width="3" stroke-linejoin="round" />
    <path d="M80 66 L92 78 L79 82 Z" fill="#ff8a3d" stroke="#2c2c2c" stroke-width="3" stroke-linejoin="round" />
    <path d="M60 98 L50 108 L60 106 L70 108 Z" fill="#ffd36a" stroke="#2c2c2c" stroke-width="3" stroke-linejoin="round" />
    <path d="M60 22 L66 34 L60 32 L54 34 Z" fill="#ff5d5d" stroke="#2c2c2c" stroke-width="3" stroke-linejoin="round" />
  </g>
</svg>
